@startuml
note "抽象工厂模式" as title

abstract class AbstractFactory{
    createProductA()
    createProductB()
}
class ConcreteFactory1{
    createProductA()
    createProductB()
}
class ConcreteFactory2{
    createProductA()
    createProductB()
}

AbstractFactory <|-- ConcreteFactory1
AbstractFactory <|-- ConcreteFactory2

abstract class AbstractProductA
abstract class AbstractProductB
class ProductA1
class ProductA2
class ProductB1
class ProductB2

AbstractProductA <|-- ProductA1
AbstractProductA <|-- ProductA2
AbstractProductB <|-- ProductB1
AbstractProductB <|-- ProductB2

ConcreteFactory1 ..> ProductA1 :创建
ConcreteFactory1 ..> ProductB1 :创建
ConcreteFactory2 ..> ProductA2 :创建
ConcreteFactory2 ..> ProductB2 :创建

class Client
Client --> AbstractFactory
Client --> AbstractProductA
Client --> AbstractProductB
@enduml